Coordinates
version=1
nRows=29
nColumns=24
inDegrees=yes

Units are S.I. units (second, meters, Newtons, ...)
If the header above contains a line with 'inDegrees', this indicates whether rotational values are in degrees (yes) or radians (no).

endheader
time	pelvis_tilt	pelvis_list	pelvis_rotation	pelvis_tx	pelvis_ty	pelvis_tz	hip_flexion_r	hip_adduction_r	hip_rotation_r	knee_angle_r	ankle_angle_r	subtalar_angle_r	mtp_angle_r	hip_flexion_l	hip_adduction_l	hip_rotation_l	knee_angle_l	ankle_angle_l	subtalar_angle_l	mtp_angle_l	lumbar_extension	lumbar_bending	lumbar_rotation
      4.37000000	      2.43480835	    -32.47210978	    -98.48953124	     -0.22120841	      0.96827484	     -3.41798258	    -35.80711212	    -15.04453122	     -7.26342230	    -47.15882542	    -26.02069148	      0.92196431	      0.00000000	    -17.14445972	      7.27389944	    -11.67803342	    -11.98301223	      2.13572917	     -0.49417398	      0.00000000	    -50.31301636	     -7.80546770	      8.21263912
      4.38000000	      1.98968088	    -32.69595570	    -98.75182412	     -0.22096326	      0.97043413	     -3.40843964	    -34.84875303	    -14.68573272	     -6.52813573	    -48.51802835	    -24.16538163	     -0.17728109	      0.00000000	    -18.29995814	      7.15459482	    -11.51139591	    -11.57859636	      2.31601842	     -0.82628596	      0.00000000	    -50.54519153	     -7.52110292	      8.25665346
      4.39000000	      1.33796659	    -32.86680033	    -99.10935972	     -0.22068405	      0.97324429	     -3.39572870	    -33.39595682	    -14.07329978	     -5.53577815	    -50.22441769	    -21.65171162	     -1.49156133	      0.00000000	    -19.70497461	      6.91733444	    -11.25273937	    -11.05040706	      2.49501946	     -1.34341370	      0.00000000	    -50.75354979	     -7.08280714	      8.32089100
      4.40000000	      0.59688004	    -32.87309217	    -99.47133527	     -0.22029645	      0.97620754	     -3.38127371	    -31.49464190	    -13.27919813	     -4.47724626	    -52.03347245	    -18.83655878	     -2.71141322	      0.00000000	    -21.07804087	      6.61631054	    -10.73319746	    -10.49844824	      2.74897956	     -2.16135778	      0.00000000	    -50.83122593	     -6.53479784	      8.38880898
      4.41000000	     -0.19625376	    -32.81413711	    -99.83811355	     -0.21988314	      0.97917605	     -3.36617875	    -29.46012833	    -12.37468628	     -3.48218672	    -53.64308058	    -16.12204465	     -3.64924464	      0.00000000	    -22.49689420	      6.27823869	    -10.07222222	     -9.83055795	      2.93698724	     -3.19619644	      0.00000000	    -50.85640374	     -5.92334032	      8.46115165
      4.42000000	     -0.95552809	    -32.61670949	   -100.17265772	     -0.21943819	      0.98184897	     -3.35118985	    -27.27743348	    -11.44910440	     -2.63060332	    -54.98578123	    -13.77541069	     -4.31222937	      0.00000000	    -23.79263703	      5.93666579	     -9.38709691	     -9.09724841	      3.09337128	     -4.27937195	      0.00000000	    -50.75678228	     -5.29848832	      8.51946084
      4.43000000	     -1.64071242	    -32.29895864	   -100.47520764	     -0.21900650	      0.98413803	     -3.33655795	    -25.00028710	    -10.55728042	     -1.93408308	    -56.03546432	    -11.88242479	     -4.77598137	      0.00000000	    -24.95485479	      5.61667027	     -8.83822103	     -8.31027239	      3.24308921	     -5.19216288	      0.00000000	    -50.54459052	     -4.70408045	      8.55362293
      4.44000000	     -2.24354415	    -31.88749090	   -100.74200686	     -0.21861348	      0.98605611	     -3.32223949	    -22.68649742	     -9.71269881	     -1.40053650	    -56.77489622	    -10.37018726	     -5.11111659	      0.00000000	    -26.00605000	      5.32222523	     -8.56151432	     -7.48003486	      3.42547559	     -5.76365198	      0.00000000	    -50.23759253	     -4.15055336	      8.54394779
      4.45000000	     -2.76729893	    -31.42738449	   -100.96458560	     -0.21828553	      0.98767016	     -3.30815627	    -20.40396534	     -8.90523401	     -1.01661625	    -57.19452146	     -9.06542432	     -5.32925020	      0.00000000	    -26.98009870	      5.05375866	     -8.58029260	     -6.64263745	      3.65738643	     -5.92037815	      0.00000000	    -49.88269161	     -3.64114259	      8.46860252
      4.46000000	     -3.22958909	    -30.97210536	   -101.14237210	     -0.21802891	      0.98906887	     -3.29417624	    -18.24144611	     -8.12852284	     -0.78287570	    -57.26588275	     -7.77148279	     -5.37560020	      0.00000000	    -27.94185139	      4.81180966	     -8.85915764	     -5.79987507	      3.90223874	     -5.72371805	      0.00000000	    -49.52750597	     -3.16777930	      8.34201439
      4.47000000	     -3.61752927	    -30.51519805	   -101.20093148	     -0.21776618	      0.99025526	     -3.28028321	    -16.20936045	     -7.37294758	     -0.74578546	    -56.98230284	     -6.34407950	     -5.17724285	      0.00000000	    -28.83604000	      4.57219164	     -9.28271269	     -5.03929794	      4.22873028	     -5.15588463	      0.00000000	    -49.17191392	     -2.69157439	      8.09753504
      4.48000000	     -3.97878840	    -30.10783683	   -101.14451460	     -0.21753814	      0.99131996	     -3.26640263	    -14.39659012	     -6.59612693	     -0.89289164	    -56.30155410	     -4.82313147	     -4.80444384	      0.00000000	    -29.74655564	      4.29921852	     -9.75841893	     -4.32646826	      4.56695144	     -4.39121983	      0.00000000	    -48.86629963	     -2.18687739	      7.76524159
      4.49000000	     -4.26699339	    -29.79328883	   -100.98919738	     -0.21724908	      0.99221770	     -3.25250118	    -12.83264841	     -5.89966473	     -1.20477329	    -55.25137373	     -3.10631701	     -4.14989276	      0.00000000	    -30.71784961	      4.07842300	    -10.03987069	     -3.65141897	      4.84211926	     -3.85366166	      0.00000000	    -48.64299492	     -1.70224963	      7.35044366
      4.50000000	     -4.52752739	    -29.49604540	   -100.76327867	     -0.21699297	      0.99290151	     -3.23868094	    -11.41730174	     -5.20680291	     -1.61628899	    -53.84723905	     -1.46156847	     -3.40508384	      0.00000000	    -31.65995928	      3.83500571	    -10.30722769	     -3.04174479	      5.15642110	     -3.18273510	      0.00000000	    -48.45019802	     -1.20854730	      6.90096609
      4.51000000	     -4.68008698	    -29.23023874	   -100.45855684	     -0.21664737	      0.99330055	     -3.22493595	    -10.13886750	     -4.64942714	     -2.14867725	    -52.13094568	      0.09092276	     -2.51692005	      0.00000000	    -32.58347135	      3.67317848	    -10.29857077	     -2.47209723	      5.36471317	     -2.88674446	      0.00000000	    -48.29068257	     -0.77285255	      6.40144720
      4.52000000	     -4.77468994	    -29.00168069	   -100.09870986	     -0.21627914	      0.99344790	     -3.21123318	     -9.02213555	     -4.16897076	     -2.77531908	    -50.08967174	      1.35100819	     -1.66552632	      0.00000000	    -33.50885267	      3.53380497	    -10.18566781	     -1.94843105	      5.57075535	     -2.62927696	      0.00000000	    -48.17482482	     -0.36500787	      5.87172359
      4.53000000	     -4.78056032	    -28.79182741	    -99.70454766	     -0.21591617	      0.99327244	     -3.19756588	     -8.02387783	     -3.80338972	     -3.46746310	    -47.77500561	      2.33915869	     -0.89139696	      0.00000000	    -34.40400565	      3.45580297	     -9.98553353	     -1.48822149	      5.80114313	     -2.45130167	      0.00000000	    -48.07999533	     -0.02936227	      5.33114178
      4.54000000	     -4.72284796	    -28.61732513	    -99.29422206	     -0.21558109	      0.99281361	     -3.18385797	     -7.17888524	     -3.52514762	     -4.20228839	    -45.18490706	      3.03965317	     -0.23274369	      0.00000000	    -35.31421843	      3.42447909	     -9.74018731	     -1.06023310	      6.03965006	     -2.28231362	      0.00000000	    -48.01697796	      0.24754578	      4.78862799
      4.55000000	     -4.63009204	    -28.51052667	    -98.91694658	     -0.21532592	      0.99211047	     -3.17007102	     -6.53180203	     -3.31677704	     -4.95809387	    -42.32146276	      3.52048975	      0.30443604	      0.00000000	    -36.30244564	      3.44658255	     -9.53713187	     -0.63049448	      6.25243452	     -2.10919203	      0.00000000	    -48.01913175	      0.45970456	      4.29614690
      4.56000000	     -4.44503058	    -28.36389499	    -98.57546102	     -0.21517513	      0.99100380	     -3.15631080	     -5.91667925	     -3.20873565	     -5.69408047	    -39.25739010	      3.94847520	      0.79534246	      0.00000000	    -37.20320131	      3.56540811	     -9.36013226	     -0.27143848	      6.54647864	     -1.88413540	      0.00000000	    -47.98140811	      0.55728761	      3.83306230
      4.57000000	     -4.27703333	    -28.26233242	    -98.34200893	     -0.21523595	      0.98965079	     -3.14250058	     -5.48099656	     -3.09205098	     -6.36193259	    -35.92711083	      4.31493687	      1.31533964	      0.00000000	    -38.17911160	      3.72470378	     -9.27318018	      0.10653276	      6.84038121	     -1.64142039	      0.00000000	    -47.99734713	      0.58458260	      3.49058950
      4.58000000	     -4.05116234	    -28.13281776	    -98.17053483	     -0.21540532	      0.98795964	     -3.12867756	     -5.11710550	     -3.03140436	     -6.99005148	    -32.37700467	      4.71782822	      1.97969827	      0.00000000	    -39.11757019	      3.97412136	     -9.21064395	      0.47149964	      7.14748225	     -1.39230935	      0.00000000	    -47.98283007	      0.51730187	      3.19320179
      4.59000000	     -3.80839995	    -27.98728236	    -98.07172605	     -0.21570134	      0.98596824	     -3.11478046	     -4.86104864	     -2.97631983	     -7.57155147	    -28.59358253	      5.18273624	      2.87240609	      0.00000000	    -40.05008569	      4.28112184	     -9.17447463	      0.83954513	      7.46067467	     -1.17976649	      0.00000000	    -47.94571434	      0.38780184	      2.95263507
      4.60000000	     -3.58148751	    -27.86901149	    -98.03421807	     -0.21613320	      0.98376693	     -3.10074810	     -4.78676739	     -2.88349576	     -8.12103518	    -24.55075547	      5.61279918	      3.92871581	      0.00000000	    -41.04808196	      4.60935454	     -9.18740660	      1.24326431	      7.72670034	     -0.94761150	      0.00000000	    -47.92582131	      0.22814692	      2.79648070
      4.61000000	     -3.35799559	    -27.74552615	    -98.04241352	     -0.21665349	      0.98130679	     -3.08655110	     -4.83467920	     -2.76276482	     -8.65648139	    -20.31099296	      6.00572268	      5.16440006	      0.00000000	    -42.05934777	      4.95947733	     -9.23381013	      1.64785956	      8.00089882	     -0.68698342	      0.00000000	    -47.88066598	      0.04695071	      2.67631690
      4.62000000	     -3.14367954	    -27.62499034	    -98.07130338	     -0.21726240	      0.97862931	     -3.07215998	     -5.00376071	     -2.60535329	     -9.22926160	    -15.93177893	      6.31941063	      6.53003122	      0.00000000	    -43.08811525	      5.30536630	     -9.32855824	      2.04199027	      8.26144422	     -0.34829842	      0.00000000	    -47.81887059	     -0.13487282	      2.58484894
      4.63000000	     -2.96892567	    -27.49348647	    -98.11907684	     -0.21798435	      0.97572933	     -3.05752374	     -5.26574164	     -2.37114809	     -9.83805807	    -11.50591065	      6.53488601	      7.96856776	      0.00000000	    -44.12725786	      5.60936621	     -9.47031778	      2.42599032	      8.53317907	      0.07594252	      0.00000000	    -47.71996227	     -0.28841593	      2.52637095
      4.64000000	     -2.77053449	    -27.40379785	    -98.11889832	     -0.21876837	      0.97271897	     -3.04273593	     -5.64948006	     -2.12234951	    -10.53892422	     -7.14070308	      6.66387724	      9.44927337	      0.00000000	    -45.17229873	      5.88730056	     -9.66993002	      2.71381819	      8.80512348	      0.71279426	      0.00000000	    -47.64825708	     -0.44099536	      2.45577363
      4.65000000	     -2.60623967	    -27.27895441	    -98.11473776	     -0.21973319	      0.96954458	     -3.02776814	     -6.00988790	     -1.79020949	    -11.20806868	     -3.02925033	      6.72377360	     10.91862885	      0.00000000	    -46.15914652	      6.09490635	     -9.96524302	      2.93094751	      9.10734582	      1.53297257	      0.00000000	    -47.52485771	     -0.56755499	      2.41592360
